<svg xmlns="http://www.w3.org/2000/svg" width="96" height="96" viewBox="0 0 96 96" role="img" aria-label="Docker Compose">
  <title>Docker Compose</title>
  <rect x="2" y="2" width="92" height="92" rx="20" fill="#FFFFFF" stroke="#D0D7DE" stroke-width="2"/>
  <rect x="17" y="17" width="62" height="62" rx="15" fill="#2496ED"/>
  <g fill="#FFFFFF"><rect x="27" y="31" width="9" height="8" rx="1"/><rect x="38" y="31" width="9" height="8" rx="1"/><rect x="49" y="31" width="9" height="8" rx="1"/><rect x="33" y="41" width="9" height="8" rx="1"/><rect x="44" y="41" width="9" height="8" rx="1"/></g>
  <path d="M25 54h38c-2 10-10 16-21 16-9 0-16-4-21-12 4 1 7 0 9-2-2 0-4-1-5-2z" fill="#FFFFFF"/>
  <text x="48" y="77" text-anchor="middle" font-family="Arial,Helvetica,sans-serif" font-size="8" font-weight="700" fill="#FFFFFF">COMPOSE</text>
</svg>
