<svg xmlns="http://www.w3.org/2000/svg" width="96" height="96" viewBox="0 0 96 96">
  <defs>
    <linearGradient id="g" x1="0" y1="0" x2="1" y2="1">
      <stop offset="0" stop-color="#FACC15"/>
      <stop offset="1" stop-color="#F59E0B"/>
    </linearGradient>
  </defs>
  <rect x="4" y="4" width="88" height="88" rx="22" fill="url(#g)"/>
  <path d="M37 24c-8 0-10 5-10 12v5c0 5-2 7-7 7 5 0 7 2 7 7v5c0 7 2 12 10 12"
        fill="none" stroke="#111827" stroke-width="6" stroke-linecap="round"/>
  <path d="M59 24c8 0 10 5 10 12v5c0 5 2 7 7 7-5 0-7 2-7 7v5c0 7-2 12-10 12"
        fill="none" stroke="#111827" stroke-width="6" stroke-linecap="round"/>
  <circle cx="48" cy="48" r="4" fill="#111827"/>
</svg>